<?xml version="1.0" standalone="no"?>
<!DOCTYPE svg PUBLIC "-//W3C//DTD SVG 20010904//EN"
 "http://www.w3.org/TR/2001/REC-SVG-20010904/DTD/svg10.dtd">
<svg version="1.0" xmlns="http://www.w3.org/2000/svg"
 width="1024.000000pt" height="1024.000000pt" viewBox="0 0 1024.000000 1024.000000"
 preserveAspectRatio="xMidYMid meet">

<g transform="translate(0.000000,1024.000000) scale(0.100000,-0.100000)"
fill="#000000" stroke="none">
<path d="M0 5120 l0 -5120 5120 0 5120 0 0 5120 0 5120 -5120 0 -5120 0 0
-5120z m2418 812 c58 -31 114 -88 143 -148 l24 -49 0 -545 0 -545 -28 -57
c-33 -67 -80 -111 -157 -147 l-55 -26 -515 0 c-400 0 -525 3 -561 13 -72 21
-139 78 -176 151 l-33 63 0 541 0 542 26 55 c34 73 76 116 149 151 l60 29 540
-2 540 -3 43 -23z m4070 -198 c26 -18 30 -65 6 -88 -23 -24 -70 -20 -88 6 -22
31 -20 54 6 78 26 24 46 25 76 4z m-1118 -37 c0 -42 -1 -43 -27 -40 -40 6 -63
-16 -70 -65 l-6 -42 54 0 55 0 -4 -40 -4 -40 -49 0 -49 0 0 -197 0 -198 -52 1
-53 2 -3 196 -2 196 -35 0 c-34 0 -35 1 -35 40 0 40 0 40 38 40 37 0 37 0 39
45 4 94 57 145 149 145 l54 0 0 -43z m-2320 17 c0 -3 23 -106 50 -228 28 -122
50 -230 50 -239 0 -50 21 4 69 181 30 108 60 218 68 245 l14 47 52 0 52 0 63
-233 c34 -127 62 -238 62 -244 0 -7 3 -13 8 -13 4 0 31 110 61 245 l54 245 59
0 c57 0 59 -1 52 -22 -4 -13 -42 -157 -84 -321 l-76 -299 -57 -1 c-56 -2 -58
-1 -66 28 -33 117 -123 433 -128 445 -3 8 -29 -73 -59 -180 -30 -107 -61 -217
-69 -245 l-14 -50 -56 0 -56 0 -14 50 c-8 28 -44 165 -80 305 -36 140 -68 263
-71 273 -5 15 2 17 55 17 34 0 61 -3 61 -6z m1698 -179 c-2 -96 0 -175 3 -175
3 0 43 43 90 95 l83 95 60 0 59 0 -19 -22 c-11 -13 -51 -58 -88 -101 l-68 -77
101 -135 c56 -74 101 -136 101 -137 0 -9 -123 2 -134 11 -7 6 -42 52 -77 101
l-63 90 -23 -21 c-19 -19 -23 -34 -25 -102 l-3 -79 -53 -2 -52 -1 0 318 0 317
55 0 56 0 -3 -175z m-625 -11 c24 -17 51 -49 66 -79 22 -42 26 -62 26 -135 -1
-89 -14 -129 -59 -178 -81 -90 -268 -84 -340 12 -39 51 -60 128 -53 197 8 76
26 118 69 161 46 45 87 58 176 54 62 -3 80 -8 115 -32z m431 30 c11 -4 16 -19
16 -49 0 -44 0 -44 -32 -39 -45 7 -99 -23 -120 -66 -15 -28 -18 -62 -18 -180
l0 -145 -52 1 -53 2 -3 236 -2 236 50 0 50 0 0 -36 0 -37 22 28 c33 43 99 65
142 49z m1683 -14 c40 -18 83 -68 83 -97 0 -9 -17 -13 -50 -13 -38 0 -52 4
-60 19 -13 25 -72 44 -110 36 -40 -9 -65 -46 -50 -74 14 -28 34 -37 104 -50
127 -24 185 -77 173 -162 -11 -85 -81 -131 -198 -132 -79 0 -140 28 -176 82
-35 52 -31 61 31 61 47 0 56 -3 61 -21 4 -11 23 -28 43 -36 64 -27 132 3 132
58 0 35 -15 43 -111 64 -127 29 -181 84 -165 169 7 35 56 89 96 105 43 17 151
12 197 -9z m671 7 c147 -54 186 -301 66 -421 -41 -41 -84 -56 -159 -56 -149 0
-235 103 -223 268 8 104 56 178 138 211 34 13 138 12 178 -2z m560 -13 c15
-11 37 -40 50 -64 20 -41 22 -57 22 -220 l0 -177 -52 2 -53 2 -5 170 c-5 188
-11 205 -71 218 -34 8 -95 -19 -112 -49 -7 -13 -13 -83 -15 -181 l-4 -160 -49
0 -49 0 0 238 0 238 47 -3 c44 -3 48 -5 53 -33 4 -23 7 -26 12 -13 4 9 24 26
45 38 49 26 140 23 181 -6z m472 4 c78 -40 85 -63 85 -276 l0 -184 -47 -2 -48
-2 0 35 0 35 -32 -31 c-113 -109 -311 -20 -282 126 14 68 75 101 217 116 31 4
64 13 72 21 56 56 -50 129 -131 90 -19 -8 -34 -20 -34 -26 0 -5 -22 -10 -50
-10 -42 0 -50 3 -50 19 0 29 39 72 84 92 60 27 159 25 216 -3z m513 8 c126
-52 161 -322 55 -423 -46 -43 -70 -53 -128 -53 -53 0 -99 18 -137 53 l-23 20
0 -121 0 -122 -52 0 -53 0 0 325 0 325 53 0 52 0 0 -37 c0 -37 0 -37 16 -15
38 54 146 78 217 48z m538 -9 c34 -18 51 -36 74 -82 26 -51 30 -69 30 -139 -1
-92 -15 -143 -53 -188 -33 -38 -78 -58 -136 -58 -56 0 -93 14 -128 48 l-28 26
0 -122 0 -122 -55 0 -55 0 0 325 0 325 50 0 50 0 0 -37 0 -37 33 31 c17 18 43
36 57 42 45 18 114 13 161 -12z m-3429 -158 l3 -171 28 -24 c38 -33 79 -31
119 5 l33 29 3 166 3 166 55 0 54 0 0 -237 0 -238 -47 1 c-47 1 -48 2 -51 34
l-3 33 -35 -34 c-30 -29 -42 -34 -97 -37 -52 -3 -67 0 -96 20 -68 46 -76 71
-79 276 l-4 182 56 0 55 0 3 -171z m946 -66 l-3 -236 -53 -1 -52 -1 0 238 0
237 55 0 55 0 -2 -237z m-2130 -546 c4 -20 -25 -34 -40 -19 -15 15 -1 44 19
40 10 -2 19 -11 21 -21z m92 -142 c0 -150 -2 -165 -17 -165 -17 0 -18 14 -16
162 1 90 3 164 3 166 0 1 7 2 15 2 13 0 15 -25 15 -165z m700 150 c0 -8 -8
-15 -18 -15 -25 0 -42 -19 -42 -47 0 -19 5 -23 31 -23 38 0 35 -24 -4 -28
l-27 -3 0 -100 c0 -92 -1 -99 -20 -99 -19 0 -20 7 -20 100 0 82 -3 100 -15
100 -8 0 -15 7 -15 15 0 8 6 15 13 15 7 0 18 20 25 44 11 44 22 52 70 55 13 1
22 -5 22 -14z m837 -1 c3 -8 1 -20 -5 -26 -15 -15 -43 8 -35 28 7 19 32 18 40
-2z m-2313 -8 c57 -24 100 -96 56 -96 -11 0 -20 5 -20 10 0 6 -11 22 -25 35
-54 55 -145 21 -160 -59 -24 -127 86 -217 167 -136 29 29 58 40 58 21 0 -22
-54 -71 -88 -80 -44 -12 -105 -1 -132 24 -32 29 -53 99 -47 155 13 109 97 165
191 126z m-542 -68 c14 -40 40 -110 57 -156 31 -82 31 -83 9 -80 -15 2 -25 15
-36 46 l-14 42 -68 0 -67 0 -13 -45 c-9 -33 -18 -45 -31 -45 -11 0 -19 4 -19
9 0 7 73 205 105 284 4 9 17 17 29 17 17 0 26 -13 48 -72z m170 -83 c-3 -146
-4 -155 -22 -155 -19 0 -20 8 -20 155 0 154 0 155 23 155 22 0 22 0 19 -155z
m2598 140 c0 -12 -15 -15 -75 -15 l-75 0 0 -55 0 -55 70 0 c60 0 70 -3 70 -17
0 -16 -9 -18 -70 -15 l-70 4 0 -71 c0 -64 -2 -71 -20 -71 -19 0 -20 7 -20 155
l0 155 95 0 c78 0 95 -3 95 -15z m-1080 -35 c0 -25 4 -30 25 -30 16 0 25 -6
25 -15 0 -9 -9 -15 -25 -15 -26 0 -26 0 -23 -82 3 -77 5 -83 26 -86 34 -5 28
-32 -7 -32 -50 0 -61 21 -61 116 0 77 -2 84 -20 84 -11 0 -20 7 -20 15 0 8 9
15 20 15 16 0 20 7 20 30 0 23 4 30 20 30 16 0 20 -7 20 -30z m-887 -29 c35
-14 55 -37 67 -79 21 -81 -26 -152 -102 -152 -50 0 -74 13 -93 50 -33 64 -9
150 48 175 38 17 49 18 80 6z m299 -18 c44 -39 45 -142 2 -188 -30 -32 -94
-35 -124 -5 l-20 20 0 -60 c0 -53 -2 -60 -20 -60 -19 0 -20 7 -20 155 0 148 1
155 20 155 12 0 20 -7 20 -17 0 -14 2 -15 18 -1 9 9 24 18 32 21 23 9 72 -1
92 -20z m423 13 c55 -23 80 -95 56 -159 -27 -72 -118 -92 -171 -39 -58 58 -47
161 20 194 42 22 51 22 95 4z m653 3 c53 -18 80 -82 62 -149 -27 -101 -164
-110 -201 -13 -23 62 1 135 54 158 39 17 46 18 85 4z m240 -12 c3 -13 -3 -17
-27 -17 -46 0 -61 -30 -61 -122 0 -71 -2 -78 -20 -78 -19 0 -20 7 -20 115 0
108 1 115 20 115 12 0 20 -7 20 -16 0 -13 5 -12 27 6 30 24 56 23 61 -3z m675
-8 c13 -17 17 -40 17 -115 0 -87 -1 -94 -20 -94 -18 0 -20 7 -20 88 0 98 -7
112 -56 112 -46 0 -57 -21 -62 -116 -3 -62 -8 -84 -18 -84 -11 0 -14 24 -14
115 0 96 3 115 15 115 8 0 15 -7 15 -17 0 -14 2 -15 18 -1 38 34 95 32 125 -3z
m204 21 c41 -15 53 -47 53 -145 0 -78 -2 -85 -20 -85 -11 0 -20 7 -20 16 0 14
-2 14 -22 0 -53 -38 -128 -6 -128 54 0 38 31 59 99 67 53 6 66 24 39 51 -17
17 -73 15 -88 -3 -17 -21 -42 -19 -38 3 3 16 60 52 84 52 6 0 25 -5 41 -10z
m256 -1 c36 -16 47 -50 47 -144 0 -78 -2 -85 -20 -85 -18 0 -20 7 -20 88 0 98
-7 112 -56 112 -49 0 -64 -28 -64 -122 0 -61 -3 -78 -14 -78 -12 0 -15 23 -18
115 -3 104 -1 115 15 115 9 0 17 -7 17 -16 0 -13 5 -12 26 5 30 24 52 26 87
10z m272 -31 c25 -29 27 -33 11 -36 -10 -2 -28 6 -40 17 -30 28 -80 28 -100
-1 -23 -33 -21 -99 4 -126 26 -28 71 -28 95 -2 21 23 45 26 45 6 0 -26 -50
-56 -92 -56 -52 0 -77 15 -94 55 -55 133 78 245 171 143z m233 8 c12 -12 25
-39 29 -59 l6 -37 -87 0 c-79 0 -86 -2 -86 -20 0 -48 79 -80 114 -45 16 17 46
20 46 6 0 -22 -54 -51 -94 -51 -64 0 -106 48 -106 121 0 98 110 150 178 85z
m-2835 -88 c-1 -94 -4 -114 -17 -116 -14 -3 -16 12 -16 112 0 104 2 116 18
116 15 0 17 -11 15 -112z m1637 -3 c0 -108 -1 -115 -20 -115 -19 0 -20 7 -20
115 0 108 1 115 20 115 19 0 20 -7 20 -115z"/>
<path d="M1298 5896 c-84 -23 -148 -87 -174 -173 -21 -68 -20 -1009 0 -1077
19 -62 56 -109 114 -143 l47 -28 535 0 c529 0 535 0 575 22 52 28 89 68 114
123 20 43 21 63 21 570 l0 525 -24 51 c-28 61 -80 106 -148 128 -44 14 -113
16 -532 15 -353 0 -493 -4 -528 -13z m1052 -317 c0 -92 -4 -139 -11 -139 -6 0
-25 11 -43 25 -18 14 -35 25 -37 25 -3 0 -22 -22 -43 -50 -21 -27 -41 -48 -46
-45 -4 2 -18 -8 -31 -23 l-24 -27 28 24 c15 14 27 22 27 18 0 -7 -230 -307
-235 -307 -11 0 -74 63 -70 70 3 4 -3 14 -13 21 -15 13 -16 12 -3 -3 25 -33
-3 -18 -44 22 l-41 40 -24 -25 c-35 -37 -49 -30 -14 8 l29 32 -37 -34 c-21
-19 -35 -37 -33 -41 6 -10 -119 -131 -139 -134 -9 -1 -17 -6 -17 -12 0 -11
-90 -104 -102 -104 -4 0 -5 5 -1 12 4 7 3 8 -5 4 -6 -4 -9 -12 -6 -17 4 -5 -1
-12 -9 -15 -19 -7 -48 14 -39 29 3 5 1 7 -4 4 -6 -4 -17 0 -24 9 -12 15 3 32
121 145 122 116 165 151 144 117 -4 -7 -3 -8 5 -4 6 4 9 11 7 15 -3 4 21 33
52 63 59 58 83 65 119 38 17 -14 17 -14 0 7 -11 13 -25 19 -35 16 -10 -4 -13
-2 -8 5 4 7 12 12 18 12 16 0 119 -90 113 -100 -3 -4 3 -14 13 -21 15 -13 16
-12 3 4 -16 21 1 23 19 2 10 -12 31 10 132 140 66 85 124 153 128 150 5 -3 6
4 3 14 -3 11 -12 22 -20 25 -13 5 -13 9 -2 24 13 15 12 16 -3 4 -19 -15 -39
-8 -34 11 1 7 1 9 -1 5 -7 -13 -25 -9 -21 4 5 13 238 107 251 101 4 -2 7 -67
7 -144z m-32 -247 c9 -7 12 -84 10 -353 l-3 -344 -118 -3 -118 -3 3 238 c3
230 4 240 28 291 18 38 46 70 100 117 82 70 80 68 98 57z m-379 -331 c12 -22
14 -340 2 -359 -6 -9 -37 -12 -122 -10 l-114 3 -3 179 c-2 123 1 183 9 192 8
10 39 14 115 14 91 0 104 -2 113 -19z m-374 -281 l0 -85 -120 0 -120 0 -3 74
c-2 41 -1 80 2 88 4 11 31 13 123 11 l118 -3 0 -85z"/>
<path d="M2327 5584 c1 -69 4 -129 7 -132 3 -3 6 54 6 126 0 73 -3 132 -7 132
-5 0 -7 -57 -6 -126z"/>
<path d="M2200 5660 c-8 -5 -10 -10 -5 -10 6 0 17 5 25 10 8 5 11 10 5 10 -5
0 -17 -5 -25 -10z"/>
<path d="M2150 5640 c-8 -5 -10 -10 -5 -10 6 0 17 5 25 10 8 5 11 10 5 10 -5
0 -17 -5 -25 -10z"/>
<path d="M2119 5463 c-13 -16 -12 -17 4 -4 16 13 21 21 13 21 -2 0 -10 -8 -17
-17z"/>
<path d="M2204 5458 l-19 -23 23 19 c21 18 27 26 19 26 -2 0 -12 -10 -23 -22z"/>
<path d="M2089 5423 c-13 -16 -12 -17 4 -4 9 7 17 15 17 17 0 8 -8 3 -21 -13z"/>
<path d="M2049 5373 c-13 -16 -12 -17 4 -4 9 7 17 15 17 17 0 8 -8 3 -21 -13z"/>
<path d="M1825 5290 c10 -11 20 -20 23 -20 3 0 -3 9 -13 20 -10 11 -20 20 -23
20 -3 0 3 -9 13 -20z"/>
<path d="M1684 5278 l-19 -23 23 19 c12 11 22 21 22 23 0 8 -8 2 -26 -19z"/>
<path d="M1979 5283 c-13 -16 -12 -17 4 -4 9 7 17 15 17 17 0 8 -8 3 -21 -13z"/>
<path d="M1949 5243 c-13 -16 -12 -17 4 -4 9 7 17 15 17 17 0 8 -8 3 -21 -13z"/>
<path d="M1564 5168 l-19 -23 23 19 c21 18 27 26 19 26 -2 0 -12 -10 -23 -22z"/>
<path d="M1971 5158 c-14 -23 -14 -23 8 -4 22 20 25 26 13 26 -4 0 -13 -10
-21 -22z"/>
<path d="M1614 5118 l-19 -23 23 19 c21 18 27 26 19 26 -2 0 -12 -10 -23 -22z"/>
<path d="M1945 5119 c-4 -6 -14 -8 -24 -4 -13 5 -14 4 -3 -6 10 -11 15 -10 29
4 10 9 14 17 11 17 -4 0 -10 -5 -13 -11z"/>
<path d="M1449 5062 l-34 -37 35 30 c19 17 37 31 39 33 2 1 2 4 -1 7 -2 3 -20
-12 -39 -33z"/>
<path d="M1564 5068 l-19 -23 23 19 c21 18 27 26 19 26 -2 0 -12 -10 -23 -22z"/>
<path d="M1345 4960 c3 -5 8 -10 11 -10 2 0 4 5 4 10 0 6 -5 10 -11 10 -5 0
-7 -4 -4 -10z"/>
<path d="M3921 5444 c-73 -61 -62 -237 16 -273 38 -17 98 -13 125 8 69 54 60
239 -13 276 -44 23 -93 19 -128 -11z"/>
<path d="M6760 5457 c-76 -38 -82 -229 -9 -281 28 -19 107 -21 130 -3 71 55
75 215 7 272 -33 28 -86 33 -128 12z"/>
<path d="M7835 5282 c-88 -15 -115 -31 -115 -73 0 -50 75 -76 144 -49 32 12
58 62 54 103 l-3 33 -80 -14z"/>
<path d="M8293 5460 c-52 -21 -84 -122 -63 -200 17 -62 60 -100 115 -100 76 0
115 54 115 157 0 115 -76 179 -167 143z"/>
<path d="M8805 5448 c-35 -27 -55 -75 -55 -133 0 -94 49 -155 125 -155 36 0
48 5 73 34 56 64 51 200 -10 251 -38 32 -94 34 -133 3z"/>
<path d="M3076 4660 c-14 -39 -26 -72 -26 -73 0 -1 23 -2 50 -2 28 0 50 3 50
6 0 3 -11 36 -24 73 l-23 67 -27 -71z"/>
<path d="M3866 4638 c-27 -38 -17 -117 18 -140 20 -14 63 -8 78 10 33 37 34
105 1 137 -23 23 -79 19 -97 -7z"/>
<path d="M4126 4638 c-38 -54 -4 -148 54 -148 69 0 96 122 36 162 -24 16 -75
8 -90 -14z"/>
<path d="M4594 4652 c-60 -40 -33 -162 36 -162 58 0 92 94 54 148 -15 22 -66
30 -90 14z"/>
<path d="M5236 4638 c-38 -54 -4 -148 53 -148 64 0 95 105 45 154 -24 24 -80
20 -98 -6z"/>
<path d="M6373 4560 c-15 -6 -23 -18 -23 -34 0 -56 102 -40 108 17 3 25 0 27
-30 26 -18 0 -43 -4 -55 -9z"/>
<path d="M7086 4638 c-9 -12 -16 -26 -16 -30 0 -5 29 -8 65 -8 70 0 82 11 47
43 -27 25 -78 22 -96 -5z"/>
</g>
</svg>
